# xmcd
#
# Track frame offsets: 
#        150
#        21088
#        43899
#        63311
#        83790
#        102785
#        115824
#        136762
#        160407
#        183083
#        206213
#
# Disc length: 3055 seconds
#
# Revision: 7
# Processed by: cddbd v1.5.2PL0 Copyright (c) Steve Scherf et al.
# Submitted via: ExactAudioCopyFreeDBPlugin 1.0
#
DISCID=8f0bed0b
DTITLE=許茹芸 - 你是最愛(精靈版)
DYEAR=1998
DGENRE=Misc
TTITLE0=Don't Say Goodbye
TTITLE1=承擔
TTITLE2=美夢成真
TTITLE3=生氣
TTITLE4=學琴的孩子
TTITLE5=透氣
TTITLE6=你是最愛
TTITLE7=All Your Heart
TTITLE8=一直
TTITLE9=集郵簿子
TTITLE10=承擔(摯愛版)
EXTD=YEAR: 1998
EXTT0=
EXTT1=
EXTT2=
EXTT3=
EXTT4=
EXTT5=
EXTT6=
EXTT7=
EXTT8=
EXTT9=
EXTT10=
PLAYORDER=
